# xmcd
#
# Track frame offsets:
#	150
#	29913
#	58056
#	73108
#	109249
#	126125
#	145626
#
# Disc length: 2551 seconds
#
# Revision: 2
# Processed by: cddbd v1.5.2PL0 Copyright (c) Steve Scherf et al.
# Submitted via: audiograbber 1.82.02
#
DISCID=6b09f507
DTITLE=Eric Clapton - Live In Hyde Park - Disc 1
DYEAR=1997
DGENRE=Rock
TTITLE0=Layla
TTITLE1=Badge
TTITLE2=Hoochie Coochie Man
TTITLE3=I Shot The Sheriff
TTITLE4=It Hurts Me Too
TTITLE5=Wonderful Tonight
TTITLE6=Five Long Nights
EXTD=
EXTT0=
EXTT1=
EXTT2=
EXTT3=
EXTT4=
EXTT5=
EXTT6=
PLAYORDER=
